<svg id="4e480263-d438-488e-9f07-df982ddcc51c" data-name="Layer 1" xmlns="http://www.w3.org/2000/svg" width="63.04" height="70" viewBox="0 0 63.04 70"><title>LiteSpeed Web ADC_license</title><path d="M56.74,52H6.3A6.31,6.31,0,0,1,0,45.72V15.78a6.31,6.31,0,0,1,6.3-6.3H56.74a6.31,6.31,0,0,1,6.3,6.3V45.72A6.31,6.31,0,0,1,56.74,52ZM6.3,12.62a3.16,3.16,0,0,0-3.15,3.15V45.72A3.16,3.16,0,0,0,6.3,48.87H56.74a3.16,3.16,0,0,0,3.15-3.15V15.78a3.16,3.16,0,0,0-3.15-3.15Z" fill="#8ea3c1"/><path d="M53.58,46.87H9.46a3.94,3.94,0,0,1-3.94-3.94V18.56a3.94,3.94,0,0,1,3.94-3.94H53.58a3.94,3.94,0,0,1,3.94,3.94V42.93A3.94,3.94,0,0,1,53.58,46.87ZM9.46,16.2a2.37,2.37,0,0,0-2.36,2.36V42.93A2.37,2.37,0,0,0,9.46,45.3H53.58a2.37,2.37,0,0,0,2.36-2.36V18.56a2.37,2.37,0,0,0-2.36-2.36Z" fill="#8ea3c1"/><path d="M10.33,25.13h1.25v8.51h4.08v1H10.33Z" fill="#fff"/><path d="M18.38,25.89a.74.74,0,0,1-.79.76.73.73,0,0,1-.75-.76.76.76,0,0,1,.78-.78A.75.75,0,0,1,18.38,25.89ZM17,34.67V27.82h1.25v6.86Z" fill="#fff"/><path d="M25.2,34.43a4.82,4.82,0,0,1-2,.4,3.26,3.26,0,0,1-3.41-3.5,3.5,3.5,0,0,1,3.68-3.65,3.93,3.93,0,0,1,1.73.37l-.28.95a3.05,3.05,0,0,0-1.44-.33,2.38,2.38,0,0,0-2.42,2.59,2.35,2.35,0,0,0,2.38,2.56A3.56,3.56,0,0,0,25,33.5Z" fill="#fff"/><path d="M27.27,31.47a2.19,2.19,0,0,0,2.35,2.38,4.45,4.45,0,0,0,1.9-.35l.23.89a5.59,5.59,0,0,1-2.29.44,3.19,3.19,0,0,1-3.37-3.47c0-2.07,1.22-3.68,3.22-3.68,2.25,0,2.83,2,2.83,3.22a3.09,3.09,0,0,1,0,.58Zm3.65-.89a1.77,1.77,0,0,0-1.73-2,2,2,0,0,0-1.91,2Z" fill="#fff"/><path d="M33.68,29.67c0-.72,0-1.29-.06-1.86h1.11L34.8,29h0a2.54,2.54,0,0,1,2.27-1.28c.95,0,2.42.57,2.42,2.92v4.08H38.27v-4c0-1.11-.41-2-1.59-2a1.83,1.83,0,0,0-1.76,1.86v4.12H33.68Z" fill="#fff"/><path d="M41.37,33.41a3.52,3.52,0,0,0,1.66.48c.89,0,1.32-.44,1.32-1S44,32,43.09,31.63c-1.25-.45-1.83-1.12-1.83-1.94a2.12,2.12,0,0,1,2.36-2,3.19,3.19,0,0,1,1.67.42L45,29a2.66,2.66,0,0,0-1.4-.41c-.74,0-1.13.42-1.13.93s.4.82,1.29,1.18c1.18.44,1.8,1,1.8,2.05,0,1.22-.95,2.07-2.55,2.07a3.91,3.91,0,0,1-1.93-.48Z" fill="#fff"/><path d="M47.85,31.47a2.19,2.19,0,0,0,2.35,2.38,4.45,4.45,0,0,0,1.9-.35l.23.89a5.59,5.59,0,0,1-2.29.44,3.19,3.19,0,0,1-3.37-3.47c0-2.07,1.22-3.68,3.22-3.68,2.25,0,2.83,2,2.83,3.22a3.09,3.09,0,0,1,0,.58Zm3.65-.89a1.77,1.77,0,0,0-1.73-2,2,2,0,0,0-1.91,2Z" fill="#fff"/><path d="M47.28,61.86,43.21,70l-2.44-4.07-5.7,1.63,4.89-9" fill="#69f"/><path d="M47.28,61.86,51.35,70l2.44-4.07,5.7,1.63-4.89-9" fill="#69f"/><circle cx="47.28" cy="50.45" r="11.4" fill="#f2c913"/><circle cx="47.28" cy="50.45" r="7.52" fill="#3d4453"/><path d="M55.09,6.82,51.6,3.33a5.61,5.61,0,0,0-3.71-1.64h-.54a5.61,5.61,0,0,0-3.71,1.64L40.17,6.79,40,7l-5.48-5.7A4.24,4.24,0,0,0,31.91,0l-.36,0h-.06l-.32,0a4.23,4.23,0,0,0-1.62.47,4.17,4.17,0,0,0-1,.76L22.86,6.9,19.42,3.35a5.65,5.65,0,0,0-3.61-1.65h-.37a5.61,5.61,0,0,0-4,1.65L8,6.82a5.6,5.6,0,0,0-1.65,4c0,.18,0,.36,0,.54A5.63,5.63,0,0,0,8,14.78l3.49,3.49a5.67,5.67,0,0,0,.65.56,5.63,5.63,0,0,0,7.31-.56l3.46-3.46.14-.16,5.49,5.73a4.25,4.25,0,0,0,3,1.3,2.8,2.8,0,0,0,.73-.1,4.44,4.44,0,0,0,1.23-.44,4.23,4.23,0,0,0,1-.77l5.66-5.67,3.44,3.55a5.63,5.63,0,0,0,8,0l3.49-3.49a5.63,5.63,0,0,0,1.62-3.44c0-.18,0-.36,0-.54A5.6,5.6,0,0,0,55.09,6.82Z" fill="#3d4453"/><path d="M35.25,10.17a.89.89,0,0,1,0,1.25l-3.1,3.1a.89.89,0,0,1-1.25,0l-3.1-3.1a.89.89,0,0,1,0-1.25l3.1-3.1a.89.89,0,0,1,1.25,0Z" fill="#36f"/><path d="M15.75,13.44a.54.54,0,0,1-.76,0l-2.26-2.26a.54.54,0,0,1,0-.76L15,8.16a.54.54,0,0,1,.76,0L18,10.42a.54.54,0,0,1,0,.76Z" fill="#fc6"/><path d="M47.95,13.44a.54.54,0,0,1-.76,0l-2.26-2.26a.54.54,0,0,1,0-.76l2.26-2.26a.54.54,0,0,1,.76,0l2.26,2.26a.54.54,0,0,1,0,.76Z" fill="#fc6"/><path d="M37.87,12a.16.16,0,0,0-.22,0l-5.58,5.58a.79.79,0,0,1-1.09,0L18.29,4.44a4.06,4.06,0,0,0-5.73,0L9.07,7.93A4,4,0,0,0,7.88,10.8c0,.13,0,.26,0,.39a4.06,4.06,0,0,0,1.17,2.48l3.49,3.49a4.09,4.09,0,0,0,.47.4,4.05,4.05,0,0,0,5.26-.4l3.46-3.46a.16.16,0,0,0,0-.22l-1.24-1.24a.18.18,0,0,0-.13,0,.21.21,0,0,0-.13.06l-3.35,3.35a2.06,2.06,0,0,1-.47.35,1.76,1.76,0,0,1-1.87.05,2.06,2.06,0,0,1-.58-.41l-3.35-3.35a2.06,2.06,0,0,1-.48-.75,1.76,1.76,0,0,1-.07-1.17,2.07,2.07,0,0,1,.55-1L14,6a2.07,2.07,0,0,1,1.26-.6,1.73,1.73,0,0,1,.56,0A2,2,0,0,1,16.91,6L29.64,19.29a2.67,2.67,0,0,0,1.88.81h0A2.72,2.72,0,0,0,32,20a2.77,2.77,0,0,0,1.38-.76l5.76-5.76a.16.16,0,0,0,0-.23Z" fill="#3ff"/><path d="M54,7.93,50.48,4.44a4,4,0,0,0-2.67-1.18h-.39a4,4,0,0,0-2.67,1.18L41.29,7.91a.16.16,0,0,0,0,.22l1.24,1.24a.2.2,0,0,0,.25,0L46.13,6a2.13,2.13,0,0,1,.47-.35,1.76,1.76,0,0,1,1.87-.05A2.08,2.08,0,0,1,49,6L52.4,9.34a2.06,2.06,0,0,1,.48.75,1.76,1.76,0,0,1,.07,1.17,2.05,2.05,0,0,1-.55,1L49,15.6a2.07,2.07,0,0,1-1.27.6,1.74,1.74,0,0,1-.56,0,2,2,0,0,1-1.09-.57L33.4,2.36a2.66,2.66,0,0,0-1.63-.77l-.23,0h-.06l-.23,0a2.63,2.63,0,0,0-1.63.76L23.88,8.11a.16.16,0,0,0,0,.22l1.29,1.29a.16.16,0,0,0,.22,0L31,4.05a.79.79,0,0,1,1.09,0L44.75,17.16a4,4,0,0,0,5.73,0L54,13.67a4.06,4.06,0,0,0,1.17-2.48c0-.13,0-.26,0-.39A4,4,0,0,0,54,7.93Z" fill="#3ff"/><path d="M29.45,14.36l-.06,0s0-.06,0-.12l2-2.49a.15.15,0,0,0,0-.15L30.3,10a.22.22,0,0,1,0-.3l3.15-2.42c.05,0,.08,0,.09,0a.08.08,0,0,1,.06,0s0,.07,0,.12l-2,2.49a.15.15,0,0,0,0,.16l1.07,1.54c0,.07.06.25,0,.32l-3.15,2.42a.18.18,0,0,1-.08,0Z" fill="#fc0"/><path d="M32.38,19.52a2.42,2.42,0,0,1-.69.24A2.42,2.42,0,0,0,32.38,19.52Z" fill="#093071"/></svg>