<svg id="bdc06b88-feb9-4dd0-aa33-0c522d65ad0d" data-name="Layer 1" xmlns="http://www.w3.org/2000/svg" width="70" height="69.16" viewBox="0 0 70 69.16"><title>LiteSpeed Web Server_license</title><path d="M64.13,52.43H17.2a5.87,5.87,0,0,1-5.87-5.87V18.7a5.87,5.87,0,0,1,5.87-5.87H64.13A5.87,5.87,0,0,1,70,18.7V46.56A5.87,5.87,0,0,1,64.13,52.43ZM17.2,15.76a2.94,2.94,0,0,0-2.93,2.93V46.56A2.94,2.94,0,0,0,17.2,49.5H64.13a2.94,2.94,0,0,0,2.93-2.93V18.7a2.94,2.94,0,0,0-2.93-2.93Z" fill="#8ea3c1"/><path d="M61.2,47.64H20.13A3.67,3.67,0,0,1,16.47,44V21.29a3.67,3.67,0,0,1,3.67-3.67H61.2a3.67,3.67,0,0,1,3.67,3.67V44A3.67,3.67,0,0,1,61.2,47.64ZM20.13,19.09a2.2,2.2,0,0,0-2.2,2.2V44a2.2,2.2,0,0,0,2.2,2.2H61.2A2.2,2.2,0,0,0,63.4,44V21.29a2.2,2.2,0,0,0-2.2-2.2Z" fill="#8ea3c1"/><path d="M20.95,27.4h1.16v7.92h3.8v1h-5Z" fill="#fff"/><path d="M28.44,28.11a.69.69,0,0,1-.74.71.68.68,0,0,1-.7-.71.71.71,0,0,1,.73-.72A.7.7,0,0,1,28.44,28.11Zm-1.29,8.17V29.9h1.16v6.38Z" fill="#fff"/><path d="M34.78,36.06a4.48,4.48,0,0,1-1.83.37,3,3,0,0,1-3.18-3.26,3.25,3.25,0,0,1,3.43-3.4,3.66,3.66,0,0,1,1.61.34l-.26.88a2.84,2.84,0,0,0-1.34-.3,2.21,2.21,0,0,0-2.25,2.41,2.19,2.19,0,0,0,2.21,2.39,3.32,3.32,0,0,0,1.42-.3Z" fill="#fff"/><path d="M36.71,33.3a2,2,0,0,0,2.19,2.21,4.14,4.14,0,0,0,1.77-.33l.21.83a5.2,5.2,0,0,1-2.14.41A3,3,0,0,1,35.6,33.2c0-1.92,1.13-3.43,3-3.43,2.1,0,2.64,1.82,2.64,3a2.87,2.87,0,0,1,0,.54Zm3.4-.83A1.65,1.65,0,0,0,38.5,30.6a1.9,1.9,0,0,0-1.78,1.87Z" fill="#fff"/><path d="M42.67,31.63c0-.67,0-1.2-.05-1.73h1L43.71,31h0a2.36,2.36,0,0,1,2.11-1.19c.88,0,2.25.53,2.25,2.72v3.8H46.94V32.61c0-1-.38-1.88-1.48-1.88a1.7,1.7,0,0,0-1.63,1.73v3.84H42.67Z" fill="#fff"/><path d="M49.84,35.11a3.28,3.28,0,0,0,1.54.45c.83,0,1.23-.41,1.23-.95s-.33-.84-1.17-1.16c-1.16-.42-1.7-1-1.7-1.81a2,2,0,0,1,2.2-1.87,3,3,0,0,1,1.56.4l-.28.84a2.48,2.48,0,0,0-1.3-.38c-.69,0-1.05.4-1.05.87s.37.76,1.2,1.09c1.09.41,1.67,1,1.67,1.91,0,1.13-.88,1.92-2.37,1.92A3.64,3.64,0,0,1,49.56,36Z" fill="#fff"/><path d="M55.86,33.3a2,2,0,0,0,2.19,2.21,4.14,4.14,0,0,0,1.77-.33L60,36a5.2,5.2,0,0,1-2.14.41,3,3,0,0,1-3.14-3.23c0-1.92,1.13-3.43,3-3.43,2.1,0,2.64,1.82,2.64,3a2.87,2.87,0,0,1,0,.54Zm3.4-.83a1.65,1.65,0,0,0-1.61-1.87,1.9,1.9,0,0,0-1.78,1.87Z" fill="#fff"/><path d="M55.33,61.58l-3.79,7.58-2.27-3.79L44,66.88l4.55-8.34" fill="#69f"/><path d="M55.33,61.58l3.79,7.58,2.27-3.79,5.31,1.52-4.55-8.34" fill="#69f"/><circle cx="55.33" cy="50.97" r="10.61" fill="#f2c913"/><circle cx="55.33" cy="50.97" r="7" fill="#3d4453"/><path d="M25,14.61,18.51,8.09l1.69-2.15a1.45,1.45,0,0,0,.25-1.6,1.39,1.39,0,0,0-1.24-.78,1.61,1.61,0,0,0-1,.37L16.55,5.22v-4A1.25,1.25,0,0,0,16.3.5L16.22.4a1.21,1.21,0,0,0-.85-.4H15.3a1.24,1.24,0,0,0-.88.36L.58,14.21A2,2,0,0,0,.58,17l6.5,6.5L5.39,25.65a1.47,1.47,0,0,0-.25,1.61A1.4,1.4,0,0,0,6.28,28h.1a1.63,1.63,0,0,0,1-.37l1.68-1.29v3.91a1.25,1.25,0,0,0,.69,1.19,1.41,1.41,0,0,0,.56.13,1.26,1.26,0,0,0,.92-.4l.12-.12.23-.23.21-.21.75-.75.82-.82,2.84-2.84,1.92-1.92L25,17.39A2,2,0,0,0,25,14.61ZM16.47,16l-.05.05-.23-.33Zm-7.34-.4,0,0,.18.26Z" fill="#3d4453"/><path d="M24.25,15.38,17.61,8.74a.15.15,0,0,0-.1,0h0a.15.15,0,0,0-.11.06l-2.83,3.59a.15.15,0,0,0,0,.2l3.05,3.05a.58.58,0,0,1,.17.41.57.57,0,0,1-.17.41l-.88.88a.15.15,0,0,0,0,.19l.61.93a.94.94,0,0,1-.18,1l-6.94,5.33a.15.15,0,0,0-.06.12c0,.59,0,1.39,0,2.19s0,1.63,0,2.24c0,.31,0,.56,0,.74s0,.16,0,.21,0,.16.08.21l.07,0c.06,0,.09,0,.14-.08l.12-.12.44-.44,1.57-1.57,4.76-4.76,6.92-6.92A.88.88,0,0,0,24.25,15.38Z" fill="#69f"/><path d="M15.42,1.17h0a.15.15,0,0,0-.11-.05h0a.15.15,0,0,0-.1,0L1.36,15a.87.87,0,0,0,0,1.23L8,22.86a.15.15,0,0,0,.1,0h0a.15.15,0,0,0,.11-.06l2.83-3.59a.15.15,0,0,0,0-.19L8,16a.58.58,0,0,1,0-.81l.88-.88a.15.15,0,0,0,0-.19l-.6-.87a.81.81,0,0,1,.17-1.09l6.94-5.33a.15.15,0,0,0,.06-.12V1.25A.15.15,0,0,0,15.42,1.17Z" fill="#cff"/><path d="M16.65,18.31,9,13.32l3.4,4.88a.39.39,0,0,1,0,.41L6.26,26.33c-.11.14-.2.29-.12.45a.31.31,0,0,0,.24.16.55.55,0,0,0,.34-.15l9.78-7.5A.84.84,0,0,0,16.65,18.31Z" fill="#f2c913"/><path d="M19.47,4.82a.29.29,0,0,0-.25-.16.53.53,0,0,0-.32.15L9.11,12.31a.74.74,0,0,0-.16,1l7.69,5-3.4-4.93a.39.39,0,0,1,0-.41l6.08-7.72h0C19.45,5.13,19.55,5,19.47,4.82Z" fill="#f4d646"/></svg>